<svg width="25" height="25" viewBox="0 0 25 25" fill="none" xmlns="http://www.w3.org/2000/svg">
<path d="M20.9623 12.5766L14.3124 19.4252C14.1737 19.568 13.984 19.6499 13.785 19.6528C13.586 19.6557 13.394 19.5795 13.2512 19.4409C13.1084 19.3022 13.0266 19.1125 13.0236 18.9135C13.0207 18.7145 13.097 18.5225 13.2356 18.3797L18.6248 12.8304L3.93675 13.0466C3.73786 13.0495 3.54595 12.9733 3.40324 12.8348C3.26054 12.6962 3.17872 12.5066 3.17579 12.3077C3.17287 12.1088 3.24907 11.9169 3.38764 11.7742C3.5262 11.6315 3.71579 11.5497 3.91468 11.5468L18.6028 11.3306L13.0526 5.94232C12.9098 5.80367 12.8279 5.61398 12.825 5.41498C12.8221 5.21598 12.8983 5.02397 13.037 4.88118C13.1756 4.7384 13.3653 4.65653 13.5643 4.65361C13.7633 4.65068 13.9553 4.72692 14.0981 4.86557L20.9467 11.5155C21.0174 11.5841 21.074 11.666 21.113 11.7565C21.1521 11.847 21.173 11.9443 21.1744 12.0428C21.1759 12.1414 21.1579 12.2393 21.1215 12.3309C21.0851 12.4225 21.031 12.506 20.9623 12.5766Z" fill="#667F93"/>
</svg>
